<svg width="307" height="50" viewBox="0 0 307 50" fill="none" xmlns="http://www.w3.org/2000/svg">
<path d="M25.4782 0H26.5955C28.5294 0.103406 30.4756 0.650852 32.0534 1.78832C37.1183 5.43187 42.1771 9.07543 47.242 12.719C47.9051 13.1873 48.5681 13.6618 49.1145 14.264C50.9072 16.1861 51.9079 18.7774 52.0307 21.3808V22.1472C51.9877 22.9258 51.8772 23.6983 51.6378 24.4404C49.6118 30.6326 47.5797 36.8248 45.5476 43.017C45.0196 44.5925 44.0128 45.9854 42.7849 47.1046C40.9001 48.8078 38.4321 49.9574 35.8536 50H16.2078C13.8933 49.9635 11.6586 49.0268 9.87202 47.6095C8.31878 46.3808 7.04794 44.7445 6.45856 42.8528C4.50012 36.8978 2.54782 30.9428 0.595518 24.9878C0.276273 24.1119 0.0859545 23.1995 0.0307007 22.2749V21.2287C0.196462 18.5219 1.30768 15.8333 3.2784 13.9234C3.76954 13.4428 4.3405 13.0657 4.89304 12.6642C9.92114 9.04501 14.9431 5.43187 19.9712 1.81265C21.5551 0.650852 23.5259 0.0973236 25.4782 0Z" fill="#CEB468"/>
<path d="M24.9256 1.91606C23.5995 2.06813 22.2796 2.48175 21.1806 3.24818C15.9499 7.0073 10.7254 10.7725 5.50083 14.5316C4.6536 15.1034 3.94758 15.8637 3.40118 16.7214C2.28383 18.4854 1.73129 20.6144 1.95845 22.6886C2.02598 23.2056 2.14876 23.7105 2.32067 24.2032C4.22999 30.0182 6.13318 35.8333 8.04251 41.6484C8.20213 42.1168 8.33105 42.5912 8.53979 43.0414C9.03708 44.1484 9.82905 45.1034 10.7438 45.9002C12.1436 47.0985 13.8933 47.9501 15.7535 48.1144C17.2883 48.1448 18.8231 48.1204 20.358 48.1326C25.472 48.1326 30.5922 48.1326 35.7063 48.1326C37.2902 48.163 38.8435 47.6034 40.1695 46.764C41.8456 45.6934 43.2699 44.118 43.847 42.1959C45.8054 36.2287 47.7639 30.2555 49.7223 24.2883C49.9249 23.7165 50.0723 23.1204 50.1275 22.5182C50.1828 21.618 50.1521 20.7117 49.9433 19.8358C49.5013 17.8528 48.4576 15.9307 46.7877 14.7019C41.8579 11.1496 36.9341 7.60341 32.0104 4.06326C31.3412 3.59489 30.7027 3.06569 29.9599 2.70681C28.4128 1.95255 26.6324 1.74574 24.9256 1.91606Z" fill="white"/>
<path d="M25.0791 19.1606C25.1282 18.8443 25.4597 18.7044 25.6378 18.4672C25.8342 18.7105 26.1965 18.8808 26.2087 19.2275C26.1473 19.483 25.9386 19.6898 25.9325 19.9513C25.9816 20.3224 26.0798 20.6813 26.1412 21.0462C25.8097 21.0462 25.4782 21.0462 25.1466 21.0462C25.2142 20.6995 25.294 20.3528 25.3554 20.0061C25.3861 19.6959 25.0791 19.4647 25.0791 19.1606Z" fill="#CEB468"/>
<path d="M25.1221 21.3808C25.5027 21.3808 25.8834 21.3747 26.264 21.3808C26.264 21.472 26.264 21.5633 26.264 21.6484C25.8834 21.6484 25.5027 21.6484 25.1282 21.6484C25.1221 21.5633 25.1221 21.472 25.1221 21.3808Z" fill="#CEB468"/>
<path d="M21.0579 20.3528C21.2359 20.2737 21.463 20.4197 21.463 20.6144C21.4815 20.8333 21.2052 20.9915 21.021 20.8698C20.8184 20.7664 20.843 20.4319 21.0579 20.3528Z" fill="#CEB468"/>
<path d="M27.9584 21.2895C27.9462 20.9976 28.2224 20.736 28.511 20.7543C28.7934 20.7543 29.0328 21.0158 29.0267 21.2895C29.039 21.4294 28.9714 21.5572 28.91 21.6788C29.0697 21.8552 29.2416 22.0195 29.4135 22.1837C30.1502 22.0681 30.979 21.9039 31.464 21.2835C31.5008 21.4355 31.5315 21.5937 31.4824 21.7457C31.4333 21.9343 31.2737 22.062 31.1325 22.1898C31.4701 22.1715 31.8078 22.2019 32.1393 22.1837C32.5138 22.1472 32.8146 21.8978 33.0479 21.6241C32.9681 22.1715 32.5445 22.7068 31.9551 22.7311C30.3651 22.7372 28.775 22.7311 27.1788 22.7372C27.0989 22.5182 27.0191 22.2993 26.9455 22.0742C27.1542 22.1168 27.3629 22.1533 27.5778 22.1776C27.7436 22.0134 27.9093 21.8431 28.069 21.6727C28.0137 21.5511 27.9462 21.4294 27.9584 21.2895Z" fill="#CEB468"/>
<path d="M21.1315 21.0827C21.1561 21.0766 21.2052 21.0706 21.2298 21.0645C21.3034 22.135 21.9788 23.0779 22.826 23.7044C23.0961 23.8929 23.354 24.0876 23.5811 24.3187C23.2496 25.2372 22.9242 26.1618 22.5988 27.0803C21.2727 27.0803 19.9528 27.0803 18.6267 27.0803C18.2952 26.7092 18.0496 26.2287 18.0741 25.7238C18.0864 25.146 18.4425 24.635 18.8538 24.2457C19.1792 23.9112 19.6028 23.6983 19.9344 23.3698C20.579 22.7737 21.0763 21.9708 21.1315 21.0827Z" fill="#CEB468"/>
<path d="M25.0423 21.9891C25.472 21.9891 25.8956 21.9891 26.3193 21.9891C26.749 23.1144 27.1849 24.2397 27.6146 25.3589C27.4796 25.5779 27.3322 25.7908 27.2033 26.0158C27.0805 26.2165 27.1051 26.4599 27.0989 26.6849C27.0007 26.7336 26.9025 26.7762 26.8043 26.8248C26.6999 26.7701 26.5955 26.7214 26.4911 26.6728C26.485 26.4659 26.5218 26.2409 26.4052 26.0584C26.264 25.8394 26.0921 25.6387 25.9447 25.4258C25.8649 25.3285 25.7851 25.1886 25.6378 25.2129C25.5211 25.2068 25.4659 25.3163 25.4045 25.3893C25.2633 25.59 25.1098 25.7847 24.9747 25.9915C24.8397 26.1922 24.8888 26.4477 24.8826 26.6728C24.7844 26.7214 24.68 26.7701 24.5818 26.8248C24.4836 26.7762 24.3854 26.7336 24.2871 26.6849C24.281 26.4903 24.3178 26.2835 24.2073 26.1131C24.06 25.8577 23.8819 25.6204 23.7285 25.371C24.1643 24.2397 24.6064 23.1144 25.0423 21.9891Z" fill="#CEB468"/>
<path d="M32.962 23.3212C33.1769 23.2238 33.3365 23.0414 33.4961 22.865C33.4102 23.4611 32.8883 23.9842 32.2621 23.9781C30.7089 23.9781 29.1618 23.9842 27.6085 23.9781C27.498 23.674 27.3936 23.3698 27.2831 23.0657C28.7873 23.0596 30.2914 23.0657 31.7894 23.0596C31.7894 23.1873 31.7955 23.3151 31.7955 23.4428C32.1884 23.4367 32.6059 23.4976 32.962 23.3212Z" fill="#CEB468"/>
<path d="M27.7252 24.3309C29.0819 24.3309 30.4449 24.3309 31.8017 24.3309C31.8017 25.4136 31.8017 26.4963 31.8017 27.5791C32.2375 27.5791 32.6796 27.5791 33.1155 27.5791C33.1155 28.9173 33.1155 30.2616 33.1155 31.5998C32.5568 31.7336 32.0104 31.91 31.4886 32.1472C31.4886 31.4234 31.4886 30.7056 31.4886 29.9818C31.0465 29.9818 30.6106 29.9818 30.1686 29.9818C30.187 29.6898 30.1011 29.3674 30.2545 29.0998C30.4571 28.7348 30.3282 28.309 30.3651 27.9136C29.9046 27.9136 29.438 27.9136 28.9776 27.9136C28.91 27.7129 28.8364 27.5122 28.7688 27.3114C29.217 27.1229 29.5485 26.691 29.5792 26.2044C29.5976 25.8029 29.5424 25.3771 29.2968 25.0487C28.8548 25.0487 28.4128 25.0487 27.9707 25.0487C27.8971 24.8175 27.8111 24.5742 27.7252 24.3309Z" fill="#CEB468"/>
<path d="M25.6562 25.7725C25.779 25.9367 25.9202 26.0827 26.0246 26.2591C26.1166 26.545 25.9447 26.9039 26.178 27.1411C26.2824 27.1533 26.4052 27.129 26.4973 27.1898C26.5771 27.3236 26.5894 27.5547 26.7981 27.5426C26.9762 27.5365 27.0191 27.3418 27.0682 27.208C27.1849 27.1168 27.3507 27.129 27.4919 27.0864C27.5839 26.8674 27.5594 26.6302 27.5594 26.399C27.5594 26.2044 27.7129 26.0523 27.8111 25.8942C28.0321 26.5754 28.2531 27.2567 28.4741 27.938C26.6078 27.938 24.7353 27.938 22.869 27.938C23.0961 27.2628 23.3171 26.5876 23.5443 25.9124C23.6425 26.0523 23.7653 26.18 23.839 26.3443C23.8697 26.5815 23.8144 26.8187 23.8758 27.0499C23.9495 27.2141 24.2319 27.0742 24.2871 27.2567C24.324 27.3966 24.4038 27.5912 24.5941 27.5365C24.766 27.5 24.723 27.2749 24.8335 27.1837C24.9932 27.1229 25.2203 27.1715 25.3001 26.983C25.3799 26.7397 25.3001 26.4781 25.3492 26.2287C25.429 26.0645 25.5518 25.9246 25.6562 25.7725Z" fill="#CEB468"/>
<path d="M18.7311 27.8285C18.7126 27.7129 18.7249 27.5912 18.7249 27.4757C19.9712 27.4757 21.2113 27.4757 22.4576 27.4757C22.4024 27.6277 22.3471 27.7798 22.2919 27.9319C21.8437 27.9319 21.3955 27.9319 20.9473 27.9319C20.9473 28.2056 20.9473 28.4793 20.9473 28.753C20.358 28.753 19.7686 28.753 19.1792 28.753C19.1792 28.6192 19.1854 28.4793 19.1669 28.3455C19.1056 28.1265 18.8723 28.0049 18.7311 27.8285Z" fill="#CEB468"/>
<path d="M21.4692 28.3577C24.2626 28.3577 27.056 28.3577 29.8555 28.3577C29.8555 28.4915 29.8678 28.6253 29.8432 28.7591C29.7757 29.0085 29.5792 29.2275 29.5976 29.5012C29.5976 30.7117 29.5976 31.9161 29.5976 33.1204C28.8302 33.8017 28.1365 34.5742 27.5594 35.4197C27.3568 35.7238 27.1358 36.0219 26.9148 36.3139C26.9086 34.9148 26.9148 33.5158 26.9086 32.1107C26.8963 31.545 26.3929 31.0462 25.8281 31.0219C25.3431 30.9611 24.8151 31.1679 24.5818 31.5998C24.3915 31.8978 24.4345 32.2628 24.4283 32.5973C24.4283 33.8321 24.4345 35.073 24.4283 36.3078C23.8758 35.5779 23.3785 34.7993 22.7462 34.1241C22.4576 33.8017 22.1568 33.4915 21.8314 33.2056C21.7455 33.1509 21.7455 33.0535 21.7516 32.9684C21.7577 31.8309 21.7516 30.6934 21.7577 29.562C21.7762 29.2701 21.5736 29.0328 21.4937 28.7652C21.4569 28.6314 21.4692 28.4915 21.4692 28.3577Z" fill="#CEB468"/>
<path d="M19.1854 29.1484C19.8361 29.1484 20.4869 29.1484 21.1377 29.1484C21.1561 29.4404 21.1499 29.7263 21.1438 30.0182C20.493 30.0182 19.8361 30.0182 19.1854 30.0182C19.1854 29.7324 19.1854 29.4404 19.1854 29.1484Z" fill="#CEB468"/>
<path d="M19.0257 30.365C19.7318 30.365 20.4439 30.365 21.1499 30.365C21.1499 31.174 21.1499 31.9769 21.1499 32.7859C20.4194 32.1715 19.5967 31.6788 18.7249 31.2835C18.7311 31.101 18.7065 30.9124 18.7433 30.7299C18.8231 30.6022 18.9275 30.4866 19.0257 30.365Z" fill="#CEB468"/>
<path d="M25.4782 5.87591C26.1965 5.78467 26.9455 5.92457 27.5655 6.29562C28.3943 6.77616 28.9898 7.63382 29.1249 8.57664C29.26 9.40998 29.0451 10.292 28.5478 10.9793C28.1119 11.5511 27.498 12.0012 26.792 12.1837C25.8711 12.4392 24.8397 12.281 24.06 11.7275C23.2066 11.1557 22.6664 10.146 22.6664 9.12409C22.6418 8.33942 22.9303 7.55474 23.4522 6.96472C23.9679 6.3747 24.6985 5.97932 25.4782 5.87591Z" fill="#D42A25"/>
<path d="M30.2791 11.101C31.4517 11.0341 32.6366 11.101 33.7908 11.3017C34.902 11.4659 35.9457 11.9221 36.9034 12.4878C38.2602 13.3333 39.396 14.5316 40.1388 15.9367C40.2494 16.1375 40.0222 16.4051 39.8073 16.3443C39.7152 16.3382 39.6538 16.2652 39.6109 16.1983C39.0399 15.3163 38.205 14.5985 37.235 14.1788C36.1851 13.7044 34.9818 13.5888 33.8583 13.8321C32.5138 14.1119 31.3044 14.9209 30.5185 16.028C30.451 16.1192 30.408 16.2409 30.2914 16.2835C28.9776 16.8674 27.5041 17.1168 26.0675 16.983C24.4775 16.8491 22.9488 16.2287 21.6779 15.2859C20.4378 15.7968 19.3634 16.7518 18.8354 17.9927C18.2522 17.2871 17.9759 16.3625 18.0128 15.4562C18.0435 14.2701 18.6942 13.1326 19.6765 12.4574C20.3396 12.0134 21.1499 11.7579 21.9542 11.8005C22.6172 12.7676 23.6548 13.4611 24.8028 13.7287C25.8158 13.9781 26.9025 13.8686 27.8541 13.4489C28.9162 12.9988 29.788 12.1411 30.2791 11.101Z" fill="#D42A25"/>
<path d="M15.6123 12.0316C16.8893 10.9063 18.4793 10.1217 20.1677 9.85401C20.5053 9.8236 20.5728 10.3832 20.2352 10.4258C18.2767 10.9185 16.6682 12.573 16.2692 14.5438C15.9131 16.101 16.3122 17.8163 17.3252 19.0572C17.4541 19.1971 17.4172 19.3978 17.4479 19.5742C17.54 20.9793 17.2945 22.4088 16.6805 23.68C16.1341 24.8601 15.3053 25.9063 14.2739 26.7032C14.1143 26.8248 13.9547 26.9526 13.795 27.0742C13.8871 27.9075 14.1082 28.7409 14.5686 29.4526C14.8387 29.8601 15.1334 30.2616 15.5202 30.5718C14.7159 30.8881 13.8073 30.9002 12.9908 30.6265C12.0576 30.3406 11.2656 29.6654 10.7929 28.82C10.2772 27.8832 10.179 26.7336 10.5412 25.7299C11.6463 25.4075 12.6163 24.6776 13.2302 23.7105C13.7398 22.9197 14.0161 21.9769 13.9854 21.0401C13.9608 19.7689 13.4021 18.5097 12.4505 17.6521C12.7452 16.5389 13.175 15.4684 13.7091 14.4465C14.1695 13.5341 14.8387 12.719 15.6123 12.0316Z" fill="#008F2C"/>
<path d="M8.69941 17.9562C9.46069 17.8528 10.2527 18.017 10.8973 18.4307C11.7261 18.9416 12.2971 19.8479 12.383 20.809C12.4751 21.6363 12.2418 22.4939 11.7138 23.1448C11.37 23.6071 10.8666 23.9477 10.3325 24.1606C9.40544 24.5195 8.3065 24.4282 7.45927 23.9112C6.67958 23.455 6.12704 22.6521 5.96128 21.7701C5.79552 20.9246 5.9797 20.0061 6.48926 19.3066C6.99268 18.5706 7.81535 18.0779 8.69941 17.9562Z" fill="#008F2C"/>
<path d="M31.9429 17.2202C32.5507 16.3078 33.5759 15.6934 34.6626 15.5596C35.3256 15.4866 36.0132 15.5657 36.6272 15.8212C37.677 16.247 38.5058 17.1655 38.8312 18.2421C38.2848 18.9599 37.9287 19.8297 37.855 20.736C37.7322 22.062 38.205 23.4307 39.1259 24.4039C39.8933 25.2311 40.9554 25.7725 42.0789 25.9063C42.5455 27.129 42.8524 28.4063 43.0182 29.6959C43.2269 32.2506 42.2753 34.8784 40.452 36.7032C40.2125 36.9221 39.8073 36.545 40.0468 36.3017C41.1518 34.9939 41.5693 33.1509 41.1334 31.5024C40.8326 30.3102 40.102 29.2275 39.1136 28.4915C38.5365 28.0596 37.8612 27.7616 37.1736 27.5547C36.6087 26.9951 36.1851 26.3139 35.8106 25.6144C35.1414 24.2822 34.8529 22.7737 34.9511 21.2895C35.0002 20.5292 35.1906 19.7871 35.3993 19.0572C35.0309 18.6557 34.6319 18.2786 34.1714 17.9927C33.5022 17.5669 32.7226 17.3419 31.9429 17.2202Z" fill="#F0D400"/>
<path d="M42.0543 17.9866C42.8033 17.8406 43.5953 17.9745 44.2645 18.3394C45.0319 18.7652 45.6213 19.5195 45.8239 20.3771C46.0633 21.2774 45.8607 22.2749 45.3143 23.0292C44.9521 23.5341 44.4425 23.9294 43.8593 24.1484C42.9445 24.5073 41.864 24.4221 41.0229 23.9294C40.2616 23.4976 39.7091 22.7372 39.5065 21.8917C39.3285 21.1131 39.4328 20.2616 39.8442 19.5681C40.2985 18.747 41.1334 18.163 42.0543 17.9866Z" fill="#F0D400"/>
<path d="M8.17143 26.8917C8.16529 26.7336 8.2758 26.5815 8.44156 26.5815C8.58277 26.5511 8.68713 26.6606 8.76081 26.764C8.66872 27.9015 8.94499 29.0693 9.55278 30.0426C10.2097 31.1131 11.2534 31.9404 12.4444 32.3479C13.6723 32.7676 15.0536 32.7433 16.2569 32.2567C18.6328 32.7007 20.7754 34.2336 21.9481 36.326C22.2857 36.8857 22.5067 37.5 22.7339 38.1083C24.0416 38.4246 25.4659 38.2603 26.6324 37.5791C26.663 38.4307 26.4052 39.2944 25.8956 39.9757C25.2694 40.8577 24.2319 41.4234 23.1575 41.5328C22.2059 41.618 21.2175 41.3625 20.4562 40.7847C20.4623 39.7628 20.1738 38.7287 19.566 37.9015C18.9398 37.0134 17.9943 36.3382 16.9322 36.0584C15.7228 35.7056 14.3844 35.8698 13.2855 36.4781C12.3216 35.8698 11.4437 35.1399 10.6333 34.337C9.79221 33.528 9.17828 32.5182 8.74239 31.4477C8.16529 30.0061 7.96883 28.4246 8.17143 26.8917Z" fill="#0082CC"/>
<path d="M15.0843 37.4757C15.9008 37.3418 16.7665 37.5243 17.4418 37.9866C18.0803 38.4063 18.5469 39.0633 18.7495 39.7932C18.903 40.4866 18.9152 41.2348 18.6205 41.8917C18.2276 42.8528 17.3251 43.5949 16.2999 43.8017C15.4834 43.9842 14.5993 43.826 13.8933 43.382C13.2241 42.9623 12.7084 42.2993 12.4997 41.545C12.2418 40.6995 12.3769 39.7628 12.825 39.0085C13.2978 38.2056 14.1511 37.6217 15.0843 37.4757Z" fill="#0082CC"/>
<path d="M36.7254 29.3491C37.5972 29.5985 38.383 30.1521 38.8803 30.9124C39.4512 31.7579 39.6538 32.8285 39.4451 33.82C39.2425 34.7628 38.6838 35.6326 37.8796 36.174C37.0139 35.8698 36.0623 35.8151 35.166 36.0341C33.9627 36.3078 32.8883 37.0681 32.2191 38.0961C31.5499 39.1241 31.2921 40.4075 31.5377 41.6058C30.629 42.3236 29.6468 42.9562 28.6031 43.4611C27.5778 43.9963 26.4175 44.2518 25.2633 44.3309C23.7039 44.4282 22.12 44.118 20.7141 43.4428C20.5544 43.3759 20.4808 43.1448 20.5974 43.0109C20.6527 42.9258 20.757 42.9015 20.843 42.865C22.8014 43.7165 25.2449 43.2482 26.7551 41.7518C27.9032 40.6691 28.5294 39.0633 28.4128 37.5C29.4933 35.5474 31.4026 34.0754 33.5759 33.5036C34.374 33.2786 35.2028 33.2238 36.0316 33.1995C36.3693 32.5973 36.6579 31.9526 36.7622 31.2652C36.8789 30.6204 36.8482 29.9757 36.7254 29.3491Z" fill="#939393"/>
<path d="M36.0132 37.4757C36.9648 37.3966 37.9348 37.7616 38.5979 38.4307C39.046 38.9051 39.3653 39.5073 39.4697 40.1521C39.6109 40.9672 39.4144 41.837 38.9417 42.5182C38.4751 43.1934 37.7384 43.6861 36.9218 43.8443C36.0009 44.0389 34.988 43.8078 34.2512 43.2178C33.49 42.6399 33.0295 41.7032 33.0111 40.7543C32.9865 39.8905 33.3303 39.0268 33.9504 38.4185C34.4968 37.871 35.2458 37.5365 36.0132 37.4757Z" fill="#939393"/>
<path d="M299.847 20.7657H301.773L303.753 24.0957L301.773 27.4257H299.847L301.827 24.0957L299.847 20.7657ZM303.087 20.7657H305.013L306.993 24.0957L305.013 27.4257H303.087L305.067 24.0957L303.087 20.7657Z" fill="white"/>
<path d="M295.601 21.9357V20.6577H297.545V29.6577H295.601V28.3617C294.869 29.3817 293.819 29.8917 292.451 29.8917C291.215 29.8917 290.159 29.4357 289.283 28.5237C288.407 27.6117 287.969 26.4897 287.969 25.1577C287.969 23.8257 288.407 22.7037 289.283 21.7917C290.159 20.8797 291.215 20.4237 292.451 20.4237C293.819 20.4237 294.869 20.9277 295.601 21.9357ZM290.723 27.2277C291.263 27.7677 291.941 28.0377 292.757 28.0377C293.573 28.0377 294.251 27.7677 294.791 27.2277C295.331 26.6757 295.601 25.9857 295.601 25.1577C295.601 24.3297 295.331 23.6457 294.791 23.1057C294.251 22.5537 293.573 22.2777 292.757 22.2777C291.941 22.2777 291.263 22.5537 290.723 23.1057C290.183 23.6457 289.913 24.3297 289.913 25.1577C289.913 25.9737 290.183 26.6637 290.723 27.2277Z" fill="white"/>
<path d="M282.436 29.8917C281.068 29.8917 279.94 29.4477 279.052 28.5597C278.188 27.6597 277.756 26.5137 277.756 25.1217C277.756 23.6097 277.984 22.4337 278.44 21.5937C278.884 20.7657 279.808 20.0037 281.212 19.3077C281.26 19.2837 281.338 19.2477 281.446 19.1997C281.566 19.1397 281.692 19.0797 281.824 19.0197C281.956 18.9597 282.088 18.8997 282.22 18.8397C282.724 18.6117 283.036 18.4677 283.156 18.4077C283.228 18.3717 283.438 18.2397 283.786 18.0117C284.206 17.7117 284.488 17.2857 284.632 16.7337L286.216 17.6517C286.156 18.3117 285.742 18.9177 284.974 19.4697C284.842 19.5897 284.596 19.7337 284.236 19.9017L283.462 20.2617L282.562 20.6397C281.782 20.9517 281.206 21.2697 280.834 21.5937C280.462 21.9177 280.204 22.3317 280.06 22.8357C280.78 22.0197 281.758 21.6117 282.994 21.6117C284.05 21.6117 284.968 21.9897 285.748 22.7457C286.54 23.5017 286.936 24.4797 286.936 25.6797C286.936 26.9037 286.516 27.9117 285.676 28.7037C284.848 29.4957 283.768 29.8917 282.436 29.8917ZM282.418 28.0737C283.174 28.0737 283.792 27.8517 284.272 27.4077C284.752 26.9517 284.992 26.3757 284.992 25.6797C284.992 24.9717 284.752 24.3897 284.272 23.9337C283.804 23.4777 283.192 23.2497 282.436 23.2497C281.764 23.2497 281.158 23.4657 280.618 23.8977C280.078 24.3057 279.808 24.8697 279.808 25.5897C279.808 26.3097 280.06 26.9037 280.564 27.3717C281.068 27.8397 281.686 28.0737 282.418 28.0737Z" fill="white"/>
<path d="M274.073 25.0677L277.583 29.6577H275.369L272.309 25.4997V29.6577H270.401V25.5357L267.341 29.6577H265.127L268.637 25.0677L265.307 20.6577H267.521L270.401 24.5997V20.6577H272.309V24.6177L275.189 20.6577H277.403L274.073 25.0677Z" fill="white"/>
<path d="M260.577 27.2097L262.881 20.6577H264.951L261.495 29.9457C261.075 31.0857 260.487 31.9377 259.731 32.5017C258.975 33.0657 258.099 33.3177 257.103 33.2577V31.4397C258.255 31.5117 259.053 30.9357 259.497 29.7117L259.551 29.5857L255.771 20.6577H257.841L260.577 27.2097Z" fill="white"/>
<path d="M250.923 20.4237C252.147 20.4237 253.203 20.8857 254.091 21.8097C254.967 22.7217 255.405 23.8377 255.405 25.1577C255.405 26.4897 254.967 27.6117 254.091 28.5237C253.215 29.4357 252.159 29.8917 250.923 29.8917C249.567 29.8917 248.517 29.3877 247.773 28.3797V33.2577H245.829V20.6577H247.773V21.9537C248.505 20.9337 249.555 20.4237 250.923 20.4237ZM248.583 27.2277C249.123 27.7677 249.801 28.0377 250.617 28.0377C251.433 28.0377 252.111 27.7677 252.651 27.2277C253.191 26.6757 253.461 25.9857 253.461 25.1577C253.461 24.3297 253.191 23.6457 252.651 23.1057C252.111 22.5537 251.433 22.2777 250.617 22.2777C249.801 22.2777 249.123 22.5537 248.583 23.1057C248.043 23.6457 247.773 24.3297 247.773 25.1577C247.773 25.9737 248.043 26.6637 248.583 27.2277Z" fill="white"/>
<path d="M243.043 20.6577V27.8217H244.249V32.0697H242.341V29.6577H236.167V32.0697H234.259V27.8217H235.357C235.909 27.0537 236.185 25.9677 236.185 24.5637V20.6577H243.043ZM237.499 27.8217H241.135V22.4397H238.093V24.5637C238.093 25.8597 237.895 26.9457 237.499 27.8217Z" fill="white"/>
<path d="M222.266 26.3637L226.874 20.6577H228.368V29.6577H226.46V23.9337L221.852 29.6577H220.358V20.6577H222.266V26.3637Z" fill="white"/>
<path d="M207.5 26.3637L212.108 20.6577H213.602V29.6577H211.694V23.9337L207.086 29.6577H205.592V20.6577H207.5V26.3637Z" fill="white"/>
<path d="M197.235 26.3637L201.843 20.6577H203.337V29.6577H201.429V23.9337L196.821 29.6577H195.327V20.6577H197.235V26.3637Z" fill="white"/>
<path d="M192.274 20.6577V27.8217H193.75V32.0697H191.842V29.6577H184.534V20.6577H186.478V27.8217H190.33V20.6577H192.274Z" fill="white"/>
<path d="M176.176 26.3637L180.784 20.6577H182.278V29.6577H180.37V23.9337L175.762 29.6577H174.268V20.6577H176.176V26.3637Z" fill="white"/>
<path d="M171.483 20.6577V27.8217H172.689V32.0697H170.781V29.6577H164.607V32.0697H162.699V27.8217H163.797C164.349 27.0537 164.625 25.9677 164.625 24.5637V20.6577H171.483ZM165.939 27.8217H169.575V22.4397H166.533V24.5637C166.533 25.8597 166.335 26.9457 165.939 27.8217Z" fill="white"/>
<path d="M159.353 21.9357V20.6577H161.297V29.6577H159.353V28.3617C158.621 29.3817 157.571 29.8917 156.203 29.8917C154.967 29.8917 153.911 29.4357 153.035 28.5237C152.159 27.6117 151.721 26.4897 151.721 25.1577C151.721 23.8257 152.159 22.7037 153.035 21.7917C153.911 20.8797 154.967 20.4237 156.203 20.4237C157.571 20.4237 158.621 20.9277 159.353 21.9357ZM154.475 27.2277C155.015 27.7677 155.693 28.0377 156.509 28.0377C157.325 28.0377 158.003 27.7677 158.543 27.2277C159.083 26.6757 159.353 25.9857 159.353 25.1577C159.353 24.3297 159.083 23.6457 158.543 23.1057C158.003 22.5537 157.325 22.2777 156.509 22.2777C155.693 22.2777 155.015 22.5537 154.475 23.1057C153.935 23.6457 153.665 24.3297 153.665 25.1577C153.665 25.9737 153.935 26.6637 154.475 27.2277Z" fill="white"/>
<path d="M145.981 20.4237C147.205 20.4237 148.261 20.8857 149.149 21.8097C150.025 22.7217 150.463 23.8377 150.463 25.1577C150.463 26.4897 150.025 27.6117 149.149 28.5237C148.273 29.4357 147.217 29.8917 145.981 29.8917C144.625 29.8917 143.575 29.3877 142.831 28.3797V33.2577H140.887V20.6577H142.831V21.9537C143.563 20.9337 144.613 20.4237 145.981 20.4237ZM143.641 27.2277C144.181 27.7677 144.859 28.0377 145.675 28.0377C146.491 28.0377 147.169 27.7677 147.709 27.2277C148.249 26.6757 148.519 25.9857 148.519 25.1577C148.519 24.3297 148.249 23.6457 147.709 23.1057C147.169 22.5537 146.491 22.2777 145.675 22.2777C144.859 22.2777 144.181 22.5537 143.641 23.1057C143.101 23.6457 142.831 24.3297 142.831 25.1577C142.831 25.9737 143.101 26.6637 143.641 27.2277Z" fill="white"/>
<path d="M131.48 17.0577H140.66V19.0377H137.114V29.6577H135.044V19.0377H131.48V17.0577Z" fill="white"/>
<path d="M125.589 20.7657H127.515L125.535 24.0957L127.515 27.4257H125.589L123.609 24.0957L125.589 20.7657ZM128.829 20.7657H130.755L128.775 24.0957L130.755 27.4257H128.829L126.849 24.0957L128.829 20.7657Z" fill="white"/>
<path d="M116.288 20.6577V27.8217H117.494V32.0697H115.586V29.6577H109.412V32.0697H107.504V27.8217H108.602C109.154 27.0537 109.43 25.9677 109.43 24.5637V20.6577H116.288ZM110.744 27.8217H114.38V22.4397H111.338V24.5637C111.338 25.8597 111.14 26.9457 110.744 27.8217Z" fill="white"/>
<path d="M104.168 24.2397V20.6577H106.112V29.6577H104.168V26.0757H100.046V29.6577H98.102V20.6577H100.046V24.2397H104.168Z" fill="white"/>
<path d="M94.9582 28.5237C94.0462 29.4357 92.9242 29.8917 91.5922 29.8917C90.2602 29.8917 89.1382 29.4357 88.2262 28.5237C87.3022 27.5997 86.8402 26.4777 86.8402 25.1577C86.8402 23.8377 87.3022 22.7157 88.2262 21.7917C89.1382 20.8797 90.2602 20.4237 91.5922 20.4237C92.9242 20.4237 94.0462 20.8797 94.9582 21.7917C95.8822 22.7157 96.3442 23.8377 96.3442 25.1577C96.3442 26.4777 95.8822 27.5997 94.9582 28.5237ZM88.7842 25.1577C88.7842 25.9737 89.0542 26.6517 89.5942 27.1917C90.1342 27.7317 90.8002 28.0017 91.5922 28.0017C92.3842 28.0017 93.0502 27.7317 93.5902 27.1917C94.1302 26.6517 94.4002 25.9737 94.4002 25.1577C94.4002 24.3417 94.1302 23.6637 93.5902 23.1237C93.0502 22.5837 92.3842 22.3137 91.5922 22.3137C90.8002 22.3137 90.1342 22.5837 89.5942 23.1237C89.0542 23.6637 88.7842 24.3417 88.7842 25.1577Z" fill="white"/>
<path d="M79.902 28.3977V29.8377H77.868V28.3977C76.068 28.2537 74.64 27.7437 73.584 26.8677C72.528 25.9917 72 24.8217 72 23.3577C72 21.9057 72.528 20.7417 73.584 19.8657C74.652 18.9777 76.08 18.4617 77.868 18.3177V16.8777H79.902V18.3177C81.666 18.4617 83.082 18.9777 84.15 19.8657C85.218 20.7537 85.752 21.9177 85.752 23.3577C85.752 24.8097 85.218 25.9797 84.15 26.8677C83.094 27.7437 81.678 28.2537 79.902 28.3977ZM77.868 20.2077C75.336 20.4357 74.07 21.4857 74.07 23.3577C74.07 25.2297 75.336 26.2797 77.868 26.5077V20.2077ZM79.902 20.2077V26.5077C82.422 26.2557 83.682 25.2057 83.682 23.3577C83.682 21.4857 82.422 20.4357 79.902 20.2077Z" fill="white"/>
</svg>
