<svg width="41" height="40" viewBox="0 0 41 40" fill="none" xmlns="http://www.w3.org/2000/svg">
<path d="M20.0643 0H20.9453C22.4701 0.0827251 24.0046 0.520681 25.2486 1.43066C29.2421 4.3455 33.2308 7.26034 37.2243 10.1752C37.7471 10.5499 38.2699 10.9294 38.7007 11.4112C40.1142 12.9489 40.9032 15.0219 41 17.1046V17.7178C40.9661 18.3406 40.879 18.9586 40.6902 19.5523C39.0928 24.5061 37.4906 29.4599 35.8883 34.4136C35.472 35.674 34.6782 36.7883 33.71 37.6837C32.224 39.0462 30.278 39.9659 28.245 40H12.755C10.9301 39.9708 9.16812 39.2214 7.7595 38.0876C6.53483 37.1046 5.53282 35.7956 5.06812 34.2822C3.52397 29.5182 1.98465 24.7543 0.445336 19.9903C0.193625 19.2895 0.0435655 18.5596 0 17.82V16.983C0.130697 14.8175 1.00685 12.6667 2.56068 11.1387C2.94793 10.7543 3.39811 10.4526 3.83377 10.1314C7.79823 7.23601 11.7578 4.3455 15.7223 1.45012C16.9712 0.520681 18.525 0.0778589 20.0643 0Z" fill="#CEB468"/>
<path d="M19.6287 1.53285C18.5831 1.6545 17.5424 1.9854 16.6759 2.59854C12.5517 5.60584 8.43235 8.618 4.31299 11.6253C3.64498 12.0827 3.08831 12.691 2.6575 13.3771C1.77651 14.7883 1.34085 16.4915 1.51995 18.1509C1.5732 18.5645 1.67001 18.9684 1.80555 19.3625C3.31098 24.0146 4.81157 28.6667 6.317 33.3187C6.44286 33.6934 6.54451 34.073 6.70909 34.4331C7.10118 35.3187 7.72562 36.0827 8.44687 36.7202C9.55053 37.6788 10.9301 38.3601 12.3968 38.4915C13.607 38.5158 14.8171 38.4963 16.0273 38.5061C20.0595 38.5061 24.0966 38.5061 28.1288 38.5061C29.3777 38.5304 30.6024 38.0827 31.6479 37.4112C32.9694 36.5547 34.0924 35.2944 34.5475 33.7567C36.0916 28.983 37.6358 24.2044 39.1799 19.4307C39.3397 18.9732 39.4558 18.4964 39.4994 18.0146C39.543 17.2944 39.5188 16.5693 39.3542 15.8686C39.0057 14.2822 38.1828 12.7445 36.8661 11.7616C32.9791 8.91971 29.0969 6.08273 25.2148 3.25061C24.6871 2.87591 24.1837 2.45255 23.598 2.16545C22.3782 1.56204 20.9744 1.39659 19.6287 1.53285Z" fill="white"/>
<path d="M19.7497 15.3285C19.7884 15.0754 20.0498 14.9635 20.1902 14.7737C20.3451 14.9684 20.6307 15.1046 20.6404 15.382C20.592 15.5864 20.4274 15.7518 20.4225 15.9611C20.4613 16.2579 20.5387 16.545 20.5871 16.837C20.3257 16.837 20.0643 16.837 19.803 16.837C19.8562 16.5596 19.9191 16.2822 19.9675 16.0049C19.9917 15.7567 19.7497 15.5718 19.7497 15.3285Z" fill="#CEB468"/>
<path d="M19.7836 17.1046C20.0837 17.1046 20.3838 17.0998 20.6839 17.1046C20.6839 17.1776 20.6839 17.2506 20.6839 17.3187C20.3838 17.3187 20.0837 17.3187 19.7884 17.3187C19.7836 17.2506 19.7836 17.1776 19.7836 17.1046Z" fill="#CEB468"/>
<path d="M16.5791 16.2822C16.7195 16.219 16.8986 16.3358 16.8986 16.4915C16.9131 16.6667 16.6953 16.7932 16.5501 16.6959C16.3903 16.6131 16.4097 16.3455 16.5791 16.2822Z" fill="#CEB468"/>
<path d="M22.02 17.0316C22.0103 16.7981 22.2281 16.5888 22.4556 16.6034C22.6783 16.6034 22.8671 16.8127 22.8622 17.0316C22.8719 17.1436 22.8187 17.2457 22.7702 17.3431C22.8961 17.4842 23.0316 17.6156 23.1672 17.747C23.7481 17.6545 24.4015 17.5231 24.7839 17.0268C24.813 17.1484 24.8372 17.2749 24.7985 17.3966C24.7597 17.5474 24.6339 17.6496 24.5225 17.7518C24.7888 17.7372 25.055 17.7616 25.3164 17.747C25.6117 17.7178 25.8489 17.5182 26.0328 17.2993C25.9699 17.7372 25.6359 18.1654 25.1712 18.1849C23.9175 18.1898 22.6638 18.1849 21.4052 18.1898C21.3423 18.0146 21.2793 17.8394 21.2213 17.6594C21.3858 17.6934 21.5504 17.7226 21.7198 17.7421C21.8505 17.6107 21.9812 17.4745 22.1071 17.3382C22.0635 17.2409 22.0103 17.1436 22.02 17.0316Z" fill="#CEB468"/>
<path d="M16.6372 16.8662C16.6566 16.8613 16.6953 16.8564 16.7146 16.8516C16.7727 17.708 17.3052 18.4623 17.9732 18.9635C18.1862 19.1144 18.3895 19.2701 18.5686 19.455C18.3072 20.1898 18.0506 20.9294 17.7941 21.6642C16.7485 21.6642 15.7078 21.6642 14.6622 21.6642C14.4008 21.3674 14.2072 20.983 14.2266 20.5791C14.2362 20.1168 14.517 19.708 14.8413 19.3966C15.0979 19.129 15.4319 18.9586 15.6933 18.6959C16.2015 18.219 16.5936 17.5766 16.6372 16.8662Z" fill="#CEB468"/>
<path d="M19.7207 17.5912C20.0595 17.5912 20.3935 17.5912 20.7275 17.5912C21.0664 18.4915 21.41 19.3917 21.7489 20.2871C21.6424 20.4623 21.5262 20.6326 21.4246 20.8127C21.3277 20.9732 21.3471 21.1679 21.3423 21.3479C21.2648 21.3869 21.1874 21.4209 21.1099 21.4599C21.0276 21.4161 20.9453 21.3771 20.863 21.3382C20.8582 21.1728 20.8873 20.9927 20.7953 20.8467C20.6839 20.6715 20.5484 20.511 20.4322 20.3406C20.3693 20.2628 20.3064 20.1509 20.1902 20.1703C20.0982 20.1654 20.0547 20.253 20.0063 20.3114C19.8949 20.472 19.7739 20.6277 19.6674 20.7932C19.5609 20.9538 19.5996 21.1582 19.5948 21.3382C19.5174 21.3771 19.4351 21.4161 19.3576 21.4599C19.2802 21.4209 19.2027 21.3869 19.1253 21.3479C19.1204 21.1922 19.1495 21.0268 19.0623 20.8905C18.9462 20.6861 18.8058 20.4964 18.6848 20.2968C19.0285 19.3917 19.377 18.4915 19.7207 17.5912Z" fill="#CEB468"/>
<path d="M25.9651 18.6569C26.1345 18.5791 26.2603 18.4331 26.3862 18.292C26.3184 18.7689 25.907 19.1873 25.4132 19.1825C24.1885 19.1825 22.9687 19.1873 21.744 19.1825C21.6569 18.9392 21.5746 18.6959 21.4875 18.4526C22.6734 18.4477 23.8594 18.4526 25.0405 18.4477C25.0405 18.5499 25.0453 18.6521 25.0453 18.7543C25.3551 18.7494 25.6843 18.7981 25.9651 18.6569Z" fill="#CEB468"/>
<path d="M21.836 19.4647C22.9058 19.4647 23.9804 19.4647 25.0502 19.4647C25.0502 20.3309 25.0502 21.1971 25.0502 22.0633C25.3939 22.0633 25.7424 22.0633 26.0861 22.0633C26.0861 23.1338 26.0861 24.2092 26.0861 25.2798C25.6456 25.3869 25.2148 25.528 24.8033 25.7178C24.8033 25.1387 24.8033 24.5645 24.8033 23.9854C24.4548 23.9854 24.1111 23.9854 23.7626 23.9854C23.7771 23.7518 23.7093 23.4939 23.8303 23.2798C23.9901 22.9878 23.8884 22.6472 23.9175 22.3309C23.5544 22.3309 23.1865 22.3309 22.8235 22.3309C22.7702 22.1703 22.7122 22.0097 22.6589 21.8491C23.0123 21.6983 23.2737 21.3528 23.2979 20.9635C23.3124 20.6423 23.2688 20.3017 23.0752 20.0389C22.7267 20.0389 22.3782 20.0389 22.0296 20.0389C21.9715 19.854 21.9038 19.6594 21.836 19.4647Z" fill="#CEB468"/>
<path d="M20.2047 20.618C20.3015 20.7494 20.4129 20.8662 20.4952 21.0073C20.5678 21.236 20.4322 21.5231 20.6162 21.7129C20.6985 21.7226 20.7953 21.7032 20.8679 21.7518C20.9308 21.8589 20.9405 22.0438 21.1051 22.0341C21.2455 22.0292 21.2793 21.8735 21.3181 21.7664C21.41 21.6934 21.5407 21.7032 21.6521 21.6691C21.7247 21.4939 21.7053 21.3041 21.7053 21.1192C21.7053 20.9635 21.8263 20.8419 21.9038 20.7153C22.078 21.2603 22.2523 21.8054 22.4266 22.3504C20.955 22.3504 19.4786 22.3504 18.0071 22.3504C18.1862 21.8102 18.3604 21.2701 18.5396 20.7299C18.617 20.8419 18.7138 20.944 18.7719 21.0754C18.7961 21.2652 18.7525 21.455 18.8009 21.6399C18.859 21.7713 19.0817 21.6594 19.1253 21.8054C19.1543 21.9173 19.2172 22.073 19.3673 22.0292C19.5028 22 19.469 21.82 19.5561 21.747C19.6819 21.6983 19.861 21.7372 19.924 21.5864C19.9869 21.3917 19.924 21.1825 19.9627 20.983C20.0256 20.8516 20.1224 20.7397 20.2047 20.618Z" fill="#CEB468"/>
<path d="M14.7445 22.2628C14.73 22.1703 14.7397 22.073 14.7397 21.9805C15.7223 21.9805 16.7001 21.9805 17.6828 21.9805C17.6392 22.1022 17.5956 22.2238 17.5521 22.3455C17.1987 22.3455 16.8453 22.3455 16.492 22.3455C16.492 22.5645 16.492 22.7835 16.492 23.0024C16.0273 23.0024 15.5626 23.0024 15.0979 23.0024C15.0979 22.8954 15.1027 22.7835 15.0882 22.6764C15.0398 22.5012 14.8558 22.4039 14.7445 22.2628Z" fill="#CEB468"/>
<path d="M16.9034 22.6861C19.1059 22.6861 21.3084 22.6861 23.5157 22.6861C23.5157 22.7932 23.5254 22.9002 23.506 23.0073C23.4528 23.2068 23.2979 23.382 23.3124 23.601C23.3124 24.5693 23.3124 25.5328 23.3124 26.4964C22.7073 27.0414 22.1603 27.6594 21.7053 28.3358C21.5456 28.5791 21.3713 28.8175 21.197 29.0511C21.1922 27.9319 21.197 26.8127 21.1922 25.6886C21.1825 25.236 20.7856 24.837 20.3403 24.8175C19.9579 24.7689 19.5416 24.9343 19.3576 25.2798C19.2076 25.5182 19.2414 25.8102 19.2366 26.0779C19.2366 27.0657 19.2414 28.0584 19.2366 29.0462C18.8009 28.4623 18.4089 27.8394 17.9103 27.2993C17.6828 27.0414 17.4456 26.7932 17.189 26.5645C17.1213 26.5207 17.1213 26.4428 17.1261 26.3747C17.1309 25.4647 17.1261 24.5547 17.1309 23.6496C17.1455 23.4161 16.9857 23.2263 16.9228 23.0122C16.8937 22.9051 16.9034 22.7932 16.9034 22.6861Z" fill="#CEB468"/>
<path d="M15.1027 23.3187C15.6158 23.3187 16.1289 23.3187 16.642 23.3187C16.6566 23.5523 16.6517 23.781 16.6469 24.0146C16.1338 24.0146 15.6158 24.0146 15.1027 24.0146C15.1027 23.7859 15.1027 23.5523 15.1027 23.3187Z" fill="#CEB468"/>
<path d="M14.9769 24.292C15.5335 24.292 16.095 24.292 16.6517 24.292C16.6517 24.9392 16.6517 25.5815 16.6517 26.2287C16.0757 25.7372 15.427 25.3431 14.7397 25.0268C14.7445 24.8808 14.7251 24.7299 14.7542 24.5839C14.8171 24.4818 14.8994 24.3893 14.9769 24.292Z" fill="#CEB468"/>
<path d="M20.0643 4.70073C20.6307 4.62774 21.2212 4.73966 21.7102 5.0365C22.3636 5.42092 22.8332 6.10706 22.9397 6.86131C23.0462 7.52798 22.8767 8.23358 22.4847 8.78345C22.141 9.24088 21.6569 9.60097 21.1002 9.74696C20.3741 9.95134 19.5609 9.82482 18.9462 9.382C18.2733 8.92457 17.8473 8.11679 17.8473 7.29927C17.828 6.67153 18.0555 6.0438 18.4669 5.57178C18.8736 5.09976 19.4496 4.78346 20.0643 4.70073Z" fill="#D42A25"/>
<path d="M23.8497 8.88078C24.7743 8.82725 25.7085 8.88078 26.6185 9.04136C27.4947 9.17275 28.3176 9.53771 29.0727 9.99027C30.1425 10.6667 31.038 11.6253 31.6237 12.7494C31.7109 12.91 31.5318 13.1241 31.3623 13.0754C31.2897 13.0706 31.2413 13.0122 31.2074 12.9586C30.7573 12.253 30.0989 11.6788 29.3341 11.3431C28.5064 10.9635 27.5576 10.871 26.6718 11.0657C25.6117 11.2895 24.6581 11.9367 24.0385 12.8224C23.9852 12.8954 23.9514 12.9927 23.8594 13.0268C22.8235 13.4939 21.6617 13.6934 20.529 13.5864C19.2753 13.4793 18.07 12.983 17.068 12.2287C16.0902 12.6375 15.2431 13.4015 14.8268 14.3942C14.3669 13.8297 14.1491 13.09 14.1782 12.365C14.2024 11.4161 14.7155 10.5061 15.49 9.96594C16.0128 9.61071 16.6517 9.40633 17.2858 9.44039C17.8086 10.2141 18.6267 10.7689 19.5319 10.983C20.3306 11.1825 21.1874 11.0949 21.9377 10.7591C22.7751 10.399 23.4625 9.71289 23.8497 8.88078Z" fill="#D42A25"/>
<path d="M12.2855 9.62531C13.2923 8.72506 14.546 8.09732 15.8772 7.88321C16.1434 7.85888 16.1967 8.30657 15.9305 8.34063C14.3863 8.73479 13.1181 10.0584 12.8034 11.635C12.5227 12.8808 12.8373 14.253 13.636 15.2457C13.7377 15.3577 13.7086 15.5182 13.7328 15.6594C13.8054 16.7835 13.6118 17.927 13.1277 18.944C12.6969 19.8881 12.0434 20.7251 11.2302 21.3625C11.1044 21.4599 10.9785 21.562 10.8527 21.6594C10.9253 22.326 11.0995 22.9927 11.4626 23.562C11.6756 23.8881 11.9079 24.2092 12.2129 24.4574C11.5787 24.7105 10.8623 24.7202 10.2185 24.5012C9.48276 24.2725 8.85832 23.7324 8.4856 23.056C8.07898 22.3066 8.00153 21.3869 8.28713 20.5839C9.15844 20.326 9.92326 19.7421 10.4073 18.9684C10.8091 18.3358 11.0269 17.5815 11.0027 16.8321C10.9834 15.8151 10.5429 14.8078 9.79256 14.1217C10.0249 13.2311 10.3638 12.3747 10.7849 11.5572C11.1479 10.8273 11.6756 10.1752 12.2855 9.62531Z" fill="#008F2C"/>
<path d="M6.83495 14.365C7.43518 14.2822 8.05962 14.4136 8.56789 14.7445C9.22137 15.1533 9.67155 15.8783 9.73932 16.6472C9.81192 17.309 9.62798 17.9951 9.21169 18.5158C8.94061 18.8856 8.54368 19.1581 8.12255 19.3285C7.39162 19.6156 6.52515 19.5426 5.85714 19.129C5.24238 18.764 4.80673 18.1217 4.67603 17.4161C4.54534 16.7397 4.69055 16.0049 5.09233 15.4453C5.48926 14.8564 6.1379 14.4623 6.83495 14.365Z" fill="#008F2C"/>
<path d="M25.1615 13.7762C25.6407 13.0462 26.4491 12.5547 27.3059 12.4477C27.8287 12.3893 28.3708 12.4526 28.8549 12.6569C29.6826 12.9976 30.3361 13.7324 30.5927 14.5937C30.1619 15.1679 29.8811 15.8637 29.823 16.5888C29.7262 17.6496 30.0989 18.7445 30.825 19.5231C31.4301 20.1849 32.2675 20.618 33.1534 20.7251C33.5213 21.7032 33.7633 22.7251 33.894 23.7567C34.0586 25.8005 33.3083 27.9027 31.8706 29.3625C31.6818 29.5377 31.3623 29.236 31.5511 29.0414C32.4224 27.9951 32.7516 26.5207 32.4079 25.202C32.1707 24.2482 31.5947 23.382 30.8153 22.7932C30.3603 22.4477 29.8279 22.2092 29.2857 22.0438C28.8404 21.5961 28.5064 21.0511 28.2111 20.4915C27.6835 19.4258 27.456 18.219 27.5334 17.0316C27.5721 16.4234 27.7222 15.8297 27.8868 15.2457C27.5963 14.9246 27.2817 14.6229 26.9187 14.3942C26.391 14.0535 25.7763 13.8735 25.1615 13.7762Z" fill="#F0D400"/>
<path d="M33.134 14.3893C33.7246 14.2725 34.349 14.3796 34.8766 14.6715C35.4817 15.0122 35.9464 15.6156 36.1061 16.3017C36.2949 17.0219 36.1352 17.82 35.7044 18.4234C35.4188 18.8273 35.017 19.1436 34.5571 19.3187C33.8359 19.6058 32.9839 19.5377 32.3208 19.1436C31.7205 18.7981 31.2849 18.1898 31.1251 17.5134C30.9848 16.8905 31.0671 16.2092 31.3914 15.6545C31.7496 14.9976 32.4079 14.5304 33.134 14.3893Z" fill="#F0D400"/>
<path d="M6.41865 21.5134C6.41381 21.3869 6.50094 21.2652 6.63164 21.2652C6.74297 21.2409 6.82526 21.3285 6.88335 21.4112C6.81074 22.3212 7.02857 23.2555 7.50779 24.0341C8.02574 24.8905 8.84864 25.5523 9.78772 25.8783C10.7558 26.2141 11.845 26.1946 12.7937 25.8054C14.6671 26.1606 16.3564 27.3869 17.281 29.0608C17.5472 29.5085 17.7215 30 17.9006 30.4866C18.9316 30.7397 20.0547 30.6083 20.9744 30.0633C20.9986 30.7445 20.7953 31.4355 20.3935 31.9805C19.8998 32.6861 19.0817 33.1387 18.2346 33.2263C17.4843 33.2944 16.705 33.09 16.1047 32.6277C16.1096 31.8102 15.8821 30.983 15.4028 30.3212C14.9091 29.6107 14.1636 29.0706 13.3262 28.8467C12.3726 28.5645 11.3174 28.6959 10.4509 29.1825C9.69091 28.6959 8.9987 28.1119 8.35974 27.4696C7.69657 26.8224 7.21251 26.0146 6.86883 25.1582C6.41381 24.0049 6.25891 22.7397 6.41865 21.5134Z" fill="#0082CC"/>
<path d="M11.8692 29.9805C12.513 29.8735 13.1955 30.0195 13.728 30.3893C14.2314 30.7251 14.5993 31.2506 14.759 31.8346C14.88 32.3893 14.8897 32.9878 14.6574 33.5134C14.3476 34.2822 13.636 34.8759 12.8276 35.0414C12.1838 35.1873 11.4868 35.0608 10.9301 34.7056C10.4025 34.3698 9.99587 33.8394 9.83129 33.236C9.62798 32.5596 9.73447 31.8102 10.0878 31.2068C10.4606 30.5645 11.1334 30.0973 11.8692 29.9805Z" fill="#0082CC"/>
<path d="M28.9323 23.4793C29.6197 23.6788 30.2393 24.1217 30.6314 24.7299C31.0816 25.4063 31.2413 26.2628 31.0767 27.056C30.917 27.8102 30.4765 28.5061 29.8424 28.9392C29.1599 28.6959 28.4096 28.6521 27.7028 28.8272C26.7541 29.0462 25.907 29.6545 25.3793 30.4769C24.8517 31.2993 24.6484 32.326 24.842 33.2847C24.1256 33.8589 23.3511 34.365 22.5282 34.7689C21.7198 35.1971 20.805 35.4015 19.8949 35.4647C18.6654 35.5426 17.4165 35.2944 16.308 34.7543C16.1822 34.7007 16.1241 34.5158 16.2161 34.4088C16.2596 34.3406 16.3419 34.3212 16.4097 34.292C17.9538 34.9732 19.8804 34.5985 21.0712 33.4015C21.9764 32.5353 22.4701 31.2506 22.3782 30C23.2301 28.438 24.7355 27.2603 26.4491 26.8029C27.0784 26.6229 27.7319 26.5791 28.3854 26.5596C28.6516 26.0779 28.8791 25.562 28.9614 25.0122C29.0534 24.4963 29.0292 23.9805 28.9323 23.4793Z" fill="#939393"/>
<path d="M28.3708 29.9805C29.1211 29.9173 29.886 30.2092 30.4087 30.7445C30.7621 31.1241 31.0138 31.6058 31.0961 32.1217C31.2074 32.7737 31.0525 33.4696 30.6798 34.0146C30.3119 34.5547 29.731 34.9489 29.0872 35.0754C28.3612 35.2311 27.5625 35.0462 26.9816 34.5742C26.3813 34.1119 26.0183 33.3625 26.0038 32.6034C25.9844 31.9124 26.2555 31.2214 26.7444 30.7348C27.1752 30.2968 27.7658 30.0292 28.3708 29.9805Z" fill="#939393"/>
</svg>
