<svg width="24" height="24" viewBox="0 0 24 24" fill="none" xmlns="http://www.w3.org/2000/svg">
<path fill-rule="evenodd" clip-rule="evenodd" d="M6.25 7.5C6.05109 7.5 5.86032 7.57902 5.71967 7.71967C5.57902 7.86032 5.5 8.05109 5.5 8.25V16.75C5.5 17.164 5.836 17.5 6.25 17.5H14.75C14.9489 17.5 15.1397 17.421 15.2803 17.2803C15.421 17.1397 15.5 16.9489 15.5 16.75V12.75C15.5 12.5511 15.579 12.3603 15.7197 12.2197C15.8603 12.079 16.0511 12 16.25 12C16.4489 12 16.6397 12.079 16.7803 12.2197C16.921 12.3603 17 12.5511 17 12.75V16.75C17 17.3467 16.7629 17.919 16.341 18.341C15.919 18.7629 15.3467 19 14.75 19H6.25C5.65326 19 5.08097 18.7629 4.65901 18.341C4.23705 17.919 4 17.3467 4 16.75V8.25C4 7.65326 4.23705 7.08097 4.65901 6.65901C5.08097 6.23705 5.65326 6 6.25 6H11.25C11.4489 6 11.6397 6.07902 11.7803 6.21967C11.921 6.36032 12 6.55109 12 6.75C12 6.94891 11.921 7.13968 11.7803 7.28033C11.6397 7.42098 11.4489 7.5 11.25 7.5H6.25Z" fill="white"/>
<path fill-rule="evenodd" clip-rule="evenodd" d="M8.19404 14.753C8.26013 14.8261 8.33998 14.8855 8.42904 14.9278C8.5181 14.97 8.61461 14.9943 8.71305 14.9992C8.8115 15.0041 8.90995 14.9896 9.00278 14.9565C9.09561 14.9233 9.18099 14.8722 9.25404 14.806L18.5 6.44V9.25C18.5 9.44891 18.5791 9.63968 18.7197 9.78033C18.8604 9.92098 19.0511 10 19.25 10C19.449 10 19.6397 9.92098 19.7804 9.78033C19.921 9.63968 20 9.44891 20 9.25V4.75C20 4.55109 19.921 4.36032 19.7804 4.21967C19.6397 4.07902 19.449 4 19.25 4H14.75C14.5511 4 14.3604 4.07902 14.2197 4.21967C14.0791 4.36032 14 4.55109 14 4.75C14 4.94891 14.0791 5.13968 14.2197 5.28033C14.3604 5.42098 14.5511 5.5 14.75 5.5H17.303L8.24704 13.694C8.17391 13.7601 8.11452 13.8399 8.07227 13.929C8.03002 14.0181 8.00574 14.1146 8.00081 14.213C7.99589 14.3115 8.01042 14.4099 8.04358 14.5027C8.07673 14.5956 8.12786 14.6799 8.19404 14.753Z" fill="white"/>
</svg>
